<mxfile host="app.diagrams.net" modified="2022-05-22T01:27:11.816Z" agent="5.0 (Windows NT 10.0; Win64; x64) AppleWebKit/537.36 (KHTML, like Gecko) Chrome/100.0.4896.127 Safari/537.36 OPR/86.0.4363.64" etag="IWJieUoy22xeQ0gq_J2S" version="18.0.7" type="github" pages="3">
  <diagram id="wXnpWY6aNnh9sXPZ4-mf" name="Ex-1-ER">
    <mxGraphModel dx="827" dy="483" grid="1" gridSize="10" guides="1" tooltips="1" connect="1" arrows="1" fold="1" page="1" pageScale="1" pageWidth="827" pageHeight="1169" math="0" shadow="0">
      <root>
        <mxCell id="0" />
        <mxCell id="1" parent="0" />
        <mxCell id="jCVoPaOYDRWHIx2C5V3y-8" value="" style="edgeStyle=orthogonalEdgeStyle;rounded=0;orthogonalLoop=1;jettySize=auto;html=1;endArrow=none;endFill=0;" parent="1" source="jCVoPaOYDRWHIx2C5V3y-1" target="jCVoPaOYDRWHIx2C5V3y-2" edge="1">
          <mxGeometry relative="1" as="geometry" />
        </mxCell>
        <mxCell id="jCVoPaOYDRWHIx2C5V3y-1" value="Cliente" style="rounded=0;whiteSpace=wrap;html=1;" parent="1" vertex="1">
          <mxGeometry x="74" y="440" width="120" height="60" as="geometry" />
        </mxCell>
        <mxCell id="jCVoPaOYDRWHIx2C5V3y-9" value="" style="edgeStyle=orthogonalEdgeStyle;rounded=0;orthogonalLoop=1;jettySize=auto;html=1;endArrow=none;endFill=0;strokeWidth=2;" parent="1" source="jCVoPaOYDRWHIx2C5V3y-2" target="jCVoPaOYDRWHIx2C5V3y-3" edge="1">
          <mxGeometry relative="1" as="geometry" />
        </mxCell>
        <mxCell id="jCVoPaOYDRWHIx2C5V3y-2" value="Possui" style="rhombus;whiteSpace=wrap;html=1;" parent="1" vertex="1">
          <mxGeometry x="234" y="430" width="80" height="80" as="geometry" />
        </mxCell>
        <mxCell id="jCVoPaOYDRWHIx2C5V3y-10" value="" style="edgeStyle=orthogonalEdgeStyle;rounded=0;orthogonalLoop=1;jettySize=auto;html=1;endArrow=none;endFill=0;" parent="1" source="jCVoPaOYDRWHIx2C5V3y-3" target="jCVoPaOYDRWHIx2C5V3y-4" edge="1">
          <mxGeometry relative="1" as="geometry" />
        </mxCell>
        <mxCell id="jCVoPaOYDRWHIx2C5V3y-3" value="ApÃ³lice" style="rounded=0;whiteSpace=wrap;html=1;" parent="1" vertex="1">
          <mxGeometry x="354" y="440" width="120" height="60" as="geometry" />
        </mxCell>
        <mxCell id="jCVoPaOYDRWHIx2C5V3y-11" value="" style="edgeStyle=orthogonalEdgeStyle;rounded=0;orthogonalLoop=1;jettySize=auto;html=1;endArrow=none;endFill=0;" parent="1" source="jCVoPaOYDRWHIx2C5V3y-4" target="jCVoPaOYDRWHIx2C5V3y-5" edge="1">
          <mxGeometry relative="1" as="geometry" />
        </mxCell>
        <mxCell id="jCVoPaOYDRWHIx2C5V3y-4" value="Cobre" style="rhombus;whiteSpace=wrap;html=1;" parent="1" vertex="1">
          <mxGeometry x="374" y="540" width="80" height="80" as="geometry" />
        </mxCell>
        <mxCell id="jCVoPaOYDRWHIx2C5V3y-12" value="" style="edgeStyle=orthogonalEdgeStyle;rounded=0;orthogonalLoop=1;jettySize=auto;html=1;endArrow=none;endFill=0;" parent="1" source="jCVoPaOYDRWHIx2C5V3y-5" target="jCVoPaOYDRWHIx2C5V3y-6" edge="1">
          <mxGeometry relative="1" as="geometry" />
        </mxCell>
        <mxCell id="jCVoPaOYDRWHIx2C5V3y-5" value="Carro" style="rounded=0;whiteSpace=wrap;html=1;" parent="1" vertex="1">
          <mxGeometry x="354" y="660" width="120" height="60" as="geometry" />
        </mxCell>
        <mxCell id="jCVoPaOYDRWHIx2C5V3y-13" value="" style="edgeStyle=orthogonalEdgeStyle;rounded=0;orthogonalLoop=1;jettySize=auto;html=1;endArrow=none;endFill=0;strokeColor=#000000;fillColor=#f8cecc;strokeWidth=2;" parent="1" source="jCVoPaOYDRWHIx2C5V3y-6" target="jCVoPaOYDRWHIx2C5V3y-7" edge="1">
          <mxGeometry relative="1" as="geometry" />
        </mxCell>
        <mxCell id="jCVoPaOYDRWHIx2C5V3y-6" value="Participa" style="rhombus;whiteSpace=wrap;html=1;" parent="1" vertex="1">
          <mxGeometry x="514" y="650" width="80" height="80" as="geometry" />
        </mxCell>
        <mxCell id="jCVoPaOYDRWHIx2C5V3y-7" value="Acidente" style="rounded=0;whiteSpace=wrap;html=1;" parent="1" vertex="1">
          <mxGeometry x="634" y="660" width="120" height="60" as="geometry" />
        </mxCell>
        <mxCell id="Eid_TFt1PMBVdh8V8qmw-1" value="(1,n)" style="text;html=1;strokeColor=none;fillColor=none;align=center;verticalAlign=middle;whiteSpace=wrap;rounded=0;" parent="1" vertex="1">
          <mxGeometry x="300" y="440" width="60" height="30" as="geometry" />
        </mxCell>
        <mxCell id="Eid_TFt1PMBVdh8V8qmw-2" value="(1,1)" style="text;html=1;strokeColor=none;fillColor=none;align=center;verticalAlign=middle;whiteSpace=wrap;rounded=0;" parent="1" vertex="1">
          <mxGeometry x="184" y="440" width="60" height="30" as="geometry" />
        </mxCell>
        <mxCell id="Eid_TFt1PMBVdh8V8qmw-3" value="(1,1)" style="text;html=1;strokeColor=none;fillColor=none;align=center;verticalAlign=middle;whiteSpace=wrap;rounded=0;" parent="1" vertex="1">
          <mxGeometry x="404" y="630" width="60" height="30" as="geometry" />
        </mxCell>
        <mxCell id="Eid_TFt1PMBVdh8V8qmw-4" value="(1,1)" style="text;html=1;strokeColor=none;fillColor=none;align=center;verticalAlign=middle;whiteSpace=wrap;rounded=0;" parent="1" vertex="1">
          <mxGeometry x="404" y="500" width="60" height="30" as="geometry" />
        </mxCell>
        <mxCell id="Eid_TFt1PMBVdh8V8qmw-5" value="(0,n)" style="text;html=1;strokeColor=none;fillColor=none;align=center;verticalAlign=middle;whiteSpace=wrap;rounded=0;" parent="1" vertex="1">
          <mxGeometry x="584" y="660" width="60" height="30" as="geometry" />
        </mxCell>
        <mxCell id="Eid_TFt1PMBVdh8V8qmw-6" value="(1,n)" style="text;html=1;strokeColor=none;fillColor=none;align=center;verticalAlign=middle;whiteSpace=wrap;rounded=0;" parent="1" vertex="1">
          <mxGeometry x="464" y="660" width="60" height="30" as="geometry" />
        </mxCell>
        <mxCell id="330mvpUEqWzNKYWSOeKC-1" value="" style="ellipse;whiteSpace=wrap;html=1;aspect=fixed;fillColor=#999999;" parent="1" vertex="1">
          <mxGeometry x="84" y="410" width="20" height="20" as="geometry" />
        </mxCell>
        <mxCell id="330mvpUEqWzNKYWSOeKC-2" value="" style="ellipse;whiteSpace=wrap;html=1;aspect=fixed;" parent="1" vertex="1">
          <mxGeometry x="124" y="410" width="20" height="20" as="geometry" />
        </mxCell>
        <mxCell id="330mvpUEqWzNKYWSOeKC-3" value="" style="ellipse;whiteSpace=wrap;html=1;aspect=fixed;" parent="1" vertex="1">
          <mxGeometry x="164" y="410" width="20" height="20" as="geometry" />
        </mxCell>
        <mxCell id="330mvpUEqWzNKYWSOeKC-5" value="" style="endArrow=none;html=1;rounded=0;exitX=0.833;exitY=0;exitDx=0;exitDy=0;exitPerimeter=0;" parent="1" source="jCVoPaOYDRWHIx2C5V3y-1" target="330mvpUEqWzNKYWSOeKC-3" edge="1">
          <mxGeometry width="50" height="50" relative="1" as="geometry">
            <mxPoint x="134" y="450" as="sourcePoint" />
            <mxPoint x="184" y="400" as="targetPoint" />
          </mxGeometry>
        </mxCell>
        <mxCell id="330mvpUEqWzNKYWSOeKC-8" value="" style="endArrow=none;html=1;rounded=0;exitX=0.833;exitY=0;exitDx=0;exitDy=0;exitPerimeter=0;entryX=0.5;entryY=1;entryDx=0;entryDy=0;" parent="1" target="330mvpUEqWzNKYWSOeKC-2" edge="1">
          <mxGeometry width="50" height="50" relative="1" as="geometry">
            <mxPoint x="133.92999999999998" y="440" as="sourcePoint" />
            <mxPoint x="133.97" y="430" as="targetPoint" />
          </mxGeometry>
        </mxCell>
        <mxCell id="330mvpUEqWzNKYWSOeKC-9" value="" style="endArrow=none;html=1;rounded=0;exitX=0.833;exitY=0;exitDx=0;exitDy=0;exitPerimeter=0;entryX=0.5;entryY=1;entryDx=0;entryDy=0;" parent="1" target="330mvpUEqWzNKYWSOeKC-1" edge="1">
          <mxGeometry width="50" height="50" relative="1" as="geometry">
            <mxPoint x="93.94999999999999" y="440" as="sourcePoint" />
            <mxPoint x="94.02000000000001" y="430" as="targetPoint" />
          </mxGeometry>
        </mxCell>
        <mxCell id="330mvpUEqWzNKYWSOeKC-10" value="&lt;u&gt;numero&lt;/u&gt;" style="text;html=1;align=center;verticalAlign=middle;resizable=0;points=[];autosize=1;strokeColor=none;fillColor=none;rotation=0;" parent="1" vertex="1">
          <mxGeometry x="74" y="390" width="60" height="20" as="geometry" />
        </mxCell>
        <mxCell id="330mvpUEqWzNKYWSOeKC-11" value="nome" style="text;html=1;align=center;verticalAlign=middle;resizable=0;points=[];autosize=1;strokeColor=none;fillColor=none;rotation=0;" parent="1" vertex="1">
          <mxGeometry x="124" y="390" width="50" height="20" as="geometry" />
        </mxCell>
        <mxCell id="330mvpUEqWzNKYWSOeKC-12" value="endereco" style="text;html=1;align=center;verticalAlign=middle;resizable=0;points=[];autosize=1;strokeColor=none;fillColor=none;rotation=0;" parent="1" vertex="1">
          <mxGeometry x="164" y="390" width="70" height="20" as="geometry" />
        </mxCell>
        <mxCell id="330mvpUEqWzNKYWSOeKC-13" value="" style="ellipse;whiteSpace=wrap;html=1;aspect=fixed;" parent="1" vertex="1">
          <mxGeometry x="166.5" y="412.5" width="15" height="15" as="geometry" />
        </mxCell>
        <mxCell id="330mvpUEqWzNKYWSOeKC-16" value="" style="ellipse;whiteSpace=wrap;html=1;aspect=fixed;fillColor=#999999;" parent="1" vertex="1">
          <mxGeometry x="374" y="410" width="20" height="20" as="geometry" />
        </mxCell>
        <mxCell id="330mvpUEqWzNKYWSOeKC-17" value="" style="ellipse;whiteSpace=wrap;html=1;aspect=fixed;" parent="1" vertex="1">
          <mxGeometry x="434" y="410" width="20" height="20" as="geometry" />
        </mxCell>
        <mxCell id="330mvpUEqWzNKYWSOeKC-18" value="" style="endArrow=none;html=1;rounded=0;entryX=0.25;entryY=0;entryDx=0;entryDy=0;" parent="1" source="330mvpUEqWzNKYWSOeKC-16" target="jCVoPaOYDRWHIx2C5V3y-3" edge="1">
          <mxGeometry width="50" height="50" relative="1" as="geometry">
            <mxPoint x="374" y="450" as="sourcePoint" />
            <mxPoint x="424" y="400" as="targetPoint" />
          </mxGeometry>
        </mxCell>
        <mxCell id="330mvpUEqWzNKYWSOeKC-19" value="" style="endArrow=none;html=1;rounded=0;" parent="1" source="330mvpUEqWzNKYWSOeKC-17" edge="1">
          <mxGeometry width="50" height="50" relative="1" as="geometry">
            <mxPoint x="443.88" y="430" as="sourcePoint" />
            <mxPoint x="444" y="440" as="targetPoint" />
          </mxGeometry>
        </mxCell>
        <mxCell id="330mvpUEqWzNKYWSOeKC-20" value="&lt;u&gt;numero&lt;/u&gt;" style="text;html=1;align=center;verticalAlign=middle;resizable=0;points=[];autosize=1;strokeColor=none;fillColor=none;" parent="1" vertex="1">
          <mxGeometry x="354" y="390" width="60" height="20" as="geometry" />
        </mxCell>
        <mxCell id="330mvpUEqWzNKYWSOeKC-21" value="&amp;nbsp;valor" style="text;html=1;align=center;verticalAlign=middle;resizable=0;points=[];autosize=1;strokeColor=none;fillColor=none;" parent="1" vertex="1">
          <mxGeometry x="424" y="390" width="40" height="20" as="geometry" />
        </mxCell>
        <mxCell id="330mvpUEqWzNKYWSOeKC-22" value="" style="ellipse;whiteSpace=wrap;html=1;aspect=fixed;fillColor=#999999;" parent="1" vertex="1">
          <mxGeometry x="374" y="730" width="20" height="20" as="geometry" />
        </mxCell>
        <mxCell id="330mvpUEqWzNKYWSOeKC-23" value="" style="ellipse;whiteSpace=wrap;html=1;aspect=fixed;" parent="1" vertex="1">
          <mxGeometry x="434" y="730" width="20" height="20" as="geometry" />
        </mxCell>
        <mxCell id="330mvpUEqWzNKYWSOeKC-24" value="" style="endArrow=none;html=1;rounded=0;exitX=0.75;exitY=1;exitDx=0;exitDy=0;" parent="1" source="jCVoPaOYDRWHIx2C5V3y-5" target="330mvpUEqWzNKYWSOeKC-23" edge="1">
          <mxGeometry width="50" height="50" relative="1" as="geometry">
            <mxPoint x="424" y="730" as="sourcePoint" />
            <mxPoint x="404" y="720" as="targetPoint" />
          </mxGeometry>
        </mxCell>
        <mxCell id="330mvpUEqWzNKYWSOeKC-25" value="" style="endArrow=none;html=1;rounded=0;exitX=0.25;exitY=1;exitDx=0;exitDy=0;" parent="1" source="jCVoPaOYDRWHIx2C5V3y-5" target="330mvpUEqWzNKYWSOeKC-22" edge="1">
          <mxGeometry width="50" height="50" relative="1" as="geometry">
            <mxPoint x="454" y="730" as="sourcePoint" />
            <mxPoint x="454" y="740" as="targetPoint" />
          </mxGeometry>
        </mxCell>
        <mxCell id="330mvpUEqWzNKYWSOeKC-26" value="&lt;u&gt;registro&lt;/u&gt;" style="text;html=1;strokeColor=none;fillColor=none;align=center;verticalAlign=middle;whiteSpace=wrap;rounded=0;" parent="1" vertex="1">
          <mxGeometry x="354" y="750" width="60" height="30" as="geometry" />
        </mxCell>
        <mxCell id="330mvpUEqWzNKYWSOeKC-27" value="marca" style="text;html=1;strokeColor=none;fillColor=none;align=center;verticalAlign=middle;whiteSpace=wrap;rounded=0;" parent="1" vertex="1">
          <mxGeometry x="414" y="750" width="60" height="30" as="geometry" />
        </mxCell>
        <mxCell id="330mvpUEqWzNKYWSOeKC-30" value="" style="ellipse;whiteSpace=wrap;html=1;aspect=fixed;fillColor=#999999;" parent="1" vertex="1">
          <mxGeometry x="654" y="730" width="20" height="20" as="geometry" />
        </mxCell>
        <mxCell id="330mvpUEqWzNKYWSOeKC-31" value="" style="ellipse;whiteSpace=wrap;html=1;aspect=fixed;" parent="1" vertex="1">
          <mxGeometry x="714" y="730" width="20" height="20" as="geometry" />
        </mxCell>
        <mxCell id="330mvpUEqWzNKYWSOeKC-32" value="&lt;u&gt;data&lt;/u&gt;" style="text;html=1;strokeColor=none;fillColor=none;align=center;verticalAlign=middle;whiteSpace=wrap;rounded=0;" parent="1" vertex="1">
          <mxGeometry x="634" y="750" width="60" height="30" as="geometry" />
        </mxCell>
        <mxCell id="330mvpUEqWzNKYWSOeKC-33" value="local" style="text;html=1;strokeColor=none;fillColor=none;align=center;verticalAlign=middle;whiteSpace=wrap;rounded=0;" parent="1" vertex="1">
          <mxGeometry x="694" y="750" width="60" height="30" as="geometry" />
        </mxCell>
        <mxCell id="330mvpUEqWzNKYWSOeKC-35" value="" style="endArrow=none;html=1;rounded=0;entryX=0.25;entryY=1;entryDx=0;entryDy=0;" parent="1" source="330mvpUEqWzNKYWSOeKC-30" target="jCVoPaOYDRWHIx2C5V3y-7" edge="1">
          <mxGeometry width="50" height="50" relative="1" as="geometry">
            <mxPoint x="564" y="770" as="sourcePoint" />
            <mxPoint x="614" y="720" as="targetPoint" />
          </mxGeometry>
        </mxCell>
        <mxCell id="330mvpUEqWzNKYWSOeKC-36" value="" style="endArrow=none;html=1;rounded=0;entryX=0.75;entryY=1;entryDx=0;entryDy=0;" parent="1" source="330mvpUEqWzNKYWSOeKC-31" target="jCVoPaOYDRWHIx2C5V3y-7" edge="1">
          <mxGeometry width="50" height="50" relative="1" as="geometry">
            <mxPoint x="674" y="740" as="sourcePoint" />
            <mxPoint x="674" y="730" as="targetPoint" />
          </mxGeometry>
        </mxCell>
        <mxCell id="ERXLabjC9CAcAXWDZFYC-1" value="" style="ellipse;whiteSpace=wrap;html=1;aspect=fixed;" parent="1" vertex="1">
          <mxGeometry x="684" y="730" width="20" height="20" as="geometry" />
        </mxCell>
        <mxCell id="ERXLabjC9CAcAXWDZFYC-2" value="" style="endArrow=none;html=1;rounded=0;strokeColor=#000000;strokeWidth=1;" parent="1" source="jCVoPaOYDRWHIx2C5V3y-7" target="ERXLabjC9CAcAXWDZFYC-1" edge="1">
          <mxGeometry width="50" height="50" relative="1" as="geometry">
            <mxPoint x="634" y="770" as="sourcePoint" />
            <mxPoint x="684" y="720" as="targetPoint" />
          </mxGeometry>
        </mxCell>
        <mxCell id="ERXLabjC9CAcAXWDZFYC-3" value="hora" style="text;html=1;strokeColor=none;fillColor=none;align=center;verticalAlign=middle;whiteSpace=wrap;rounded=0;" parent="1" vertex="1">
          <mxGeometry x="664" y="750" width="60" height="30" as="geometry" />
        </mxCell>
      </root>
    </mxGraphModel>
  </diagram>
  <diagram id="FA1aAqckvlu4PTCzGnl2" name="Ex-1-LÃ³gico">
    <mxGraphModel dx="827" dy="483" grid="1" gridSize="10" guides="1" tooltips="1" connect="1" arrows="1" fold="1" page="1" pageScale="1" pageWidth="827" pageHeight="1169" math="0" shadow="0">
      <root>
        <mxCell id="0" />
        <mxCell id="1" parent="0" />
        <mxCell id="oAvmCOgTyP6VpXKZGT1a-1" value="" style="rounded=0;whiteSpace=wrap;html=1;" parent="1" vertex="1">
          <mxGeometry x="19" y="415" width="240" height="240" as="geometry" />
        </mxCell>
        <mxCell id="oAvmCOgTyP6VpXKZGT1a-2" value="&lt;div style=&quot;&quot;&gt;&lt;span style=&quot;background-color: initial;&quot;&gt;Cliente (&lt;b&gt;Cl_numero&lt;/b&gt;, Cl_nome)&lt;/span&gt;&lt;/div&gt;&lt;div style=&quot;&quot;&gt;&lt;span style=&quot;background-color: initial;&quot;&gt;EndereÃ§o (&lt;b&gt;Cl_numero&lt;/b&gt;, Cl_endereco)&lt;/span&gt;&lt;/div&gt;&lt;div style=&quot;&quot;&gt;&lt;span style=&quot;background-color: initial;&quot;&gt;&lt;i&gt;Cl_numero referencia Cliente&lt;/i&gt;&lt;/span&gt;&lt;/div&gt;&lt;div style=&quot;&quot;&gt;&lt;span style=&quot;background-color: initial;&quot;&gt;ApÃ³lice (&lt;b&gt;Ap_numero&lt;/b&gt;, &lt;b&gt;Cl_numero&lt;/b&gt;, &lt;b&gt;Ca_registro&lt;/b&gt;, Ap_valor)&lt;/span&gt;&lt;/div&gt;&lt;div style=&quot;&quot;&gt;&lt;span style=&quot;background-color: initial;&quot;&gt;&lt;i&gt;Cl_numero referencia Cliente&lt;/i&gt;&lt;/span&gt;&lt;/div&gt;&lt;div style=&quot;&quot;&gt;&lt;span style=&quot;background-color: initial;&quot;&gt;&lt;i&gt;Ca_registro referencia Carro&lt;/i&gt;&lt;/span&gt;&lt;/div&gt;&lt;div style=&quot;&quot;&gt;&lt;span style=&quot;background-color: initial;&quot;&gt;Carro (&lt;b&gt;Ca_registro&lt;/b&gt;, Ca_marca)&lt;/span&gt;&lt;/div&gt;&lt;div style=&quot;&quot;&gt;&lt;span style=&quot;background-color: initial;&quot;&gt;Acidente (&lt;b&gt;Ac_data&lt;/b&gt;, &lt;b&gt;Ca_registro&lt;/b&gt;, Ac_hora, Ac_local)&lt;/span&gt;&lt;/div&gt;&lt;div style=&quot;&quot;&gt;&lt;span style=&quot;background-color: initial;&quot;&gt;&lt;i&gt;Ca_registro referencia Carro&lt;/i&gt;&lt;/span&gt;&lt;/div&gt;" style="text;html=1;strokeColor=none;fillColor=none;align=left;verticalAlign=middle;whiteSpace=wrap;rounded=0;" parent="1" vertex="1">
          <mxGeometry x="29" y="425" width="220" height="220" as="geometry" />
        </mxCell>
        <mxCell id="2ckKhrjhJKjkPzwcMj3I-1" value="Cliente" style="shape=table;startSize=30;container=1;collapsible=1;childLayout=tableLayout;fixedRows=1;rowLines=1;fontStyle=1;align=center;resizeLast=1;swimlaneLine=1;shadow=0;sketch=0;swimlaneFillColor=default;gradientColor=none;columnLines=1;" parent="1" vertex="1">
          <mxGeometry x="310" y="415" width="170" height="120" as="geometry" />
        </mxCell>
        <mxCell id="2ckKhrjhJKjkPzwcMj3I-2" value="" style="shape=tableRow;horizontal=0;startSize=0;swimlaneHead=0;swimlaneBody=0;fillColor=none;collapsible=0;dropTarget=0;points=[[0,0.5],[1,0.5]];portConstraint=eastwest;top=0;left=0;right=0;bottom=1;" parent="2ckKhrjhJKjkPzwcMj3I-1" vertex="1">
          <mxGeometry y="30" width="170" height="30" as="geometry" />
        </mxCell>
        <mxCell id="2ckKhrjhJKjkPzwcMj3I-4" value="Cl_numero" style="shape=partialRectangle;connectable=0;fillColor=none;top=0;left=0;bottom=0;right=0;align=left;spacingLeft=6;fontStyle=5;overflow=hidden;" parent="2ckKhrjhJKjkPzwcMj3I-2" vertex="1">
          <mxGeometry width="80" height="30" as="geometry">
            <mxRectangle width="80" height="30" as="alternateBounds" />
          </mxGeometry>
        </mxCell>
        <mxCell id="2ckKhrjhJKjkPzwcMj3I-14" value="Cl_nome" style="shape=partialRectangle;connectable=0;fillColor=none;top=0;left=0;bottom=0;right=0;align=left;spacingLeft=6;fontStyle=0;overflow=hidden;" parent="2ckKhrjhJKjkPzwcMj3I-2" vertex="1">
          <mxGeometry x="80" width="90" height="30" as="geometry">
            <mxRectangle width="90" height="30" as="alternateBounds" />
          </mxGeometry>
        </mxCell>
        <mxCell id="2ckKhrjhJKjkPzwcMj3I-8" value="" style="shape=tableRow;horizontal=0;startSize=0;swimlaneHead=0;swimlaneBody=0;fillColor=none;collapsible=0;dropTarget=0;points=[[0,0.5],[1,0.5]];portConstraint=eastwest;top=0;left=0;right=0;bottom=0;" parent="2ckKhrjhJKjkPzwcMj3I-1" vertex="1">
          <mxGeometry y="60" width="170" height="30" as="geometry" />
        </mxCell>
        <mxCell id="2ckKhrjhJKjkPzwcMj3I-10" value="0001" style="shape=partialRectangle;connectable=0;fillColor=none;top=0;left=0;bottom=0;right=0;align=left;spacingLeft=6;overflow=hidden;" parent="2ckKhrjhJKjkPzwcMj3I-8" vertex="1">
          <mxGeometry width="80" height="30" as="geometry">
            <mxRectangle width="80" height="30" as="alternateBounds" />
          </mxGeometry>
        </mxCell>
        <mxCell id="2ckKhrjhJKjkPzwcMj3I-16" value="Marcelo Costa" style="shape=partialRectangle;connectable=0;fillColor=none;top=0;left=0;bottom=0;right=0;align=left;spacingLeft=6;overflow=hidden;" parent="2ckKhrjhJKjkPzwcMj3I-8" vertex="1">
          <mxGeometry x="80" width="90" height="30" as="geometry">
            <mxRectangle width="90" height="30" as="alternateBounds" />
          </mxGeometry>
        </mxCell>
        <mxCell id="2ckKhrjhJKjkPzwcMj3I-11" value="" style="shape=tableRow;horizontal=0;startSize=0;swimlaneHead=0;swimlaneBody=0;fillColor=none;collapsible=0;dropTarget=0;points=[[0,0.5],[1,0.5]];portConstraint=eastwest;top=0;left=0;right=0;bottom=0;" parent="2ckKhrjhJKjkPzwcMj3I-1" vertex="1">
          <mxGeometry y="90" width="170" height="30" as="geometry" />
        </mxCell>
        <mxCell id="2ckKhrjhJKjkPzwcMj3I-13" value="0002" style="shape=partialRectangle;connectable=0;fillColor=none;top=0;left=0;bottom=0;right=0;align=left;spacingLeft=6;overflow=hidden;" parent="2ckKhrjhJKjkPzwcMj3I-11" vertex="1">
          <mxGeometry width="80" height="30" as="geometry">
            <mxRectangle width="80" height="30" as="alternateBounds" />
          </mxGeometry>
        </mxCell>
        <mxCell id="2ckKhrjhJKjkPzwcMj3I-17" value="Caio Oliveira" style="shape=partialRectangle;connectable=0;fillColor=none;top=0;left=0;bottom=0;right=0;align=left;spacingLeft=6;overflow=hidden;" parent="2ckKhrjhJKjkPzwcMj3I-11" vertex="1">
          <mxGeometry x="80" width="90" height="30" as="geometry">
            <mxRectangle width="90" height="30" as="alternateBounds" />
          </mxGeometry>
        </mxCell>
        <mxCell id="2ckKhrjhJKjkPzwcMj3I-18" value="EndereÃ§o" style="shape=table;startSize=30;container=1;collapsible=1;childLayout=tableLayout;fixedRows=1;rowLines=1;fontStyle=1;align=center;resizeLast=1;swimlaneLine=1;shadow=0;sketch=0;swimlaneFillColor=default;gradientColor=none;columnLines=1;" parent="1" vertex="1">
          <mxGeometry x="310" y="545" width="170" height="150" as="geometry" />
        </mxCell>
        <mxCell id="2ckKhrjhJKjkPzwcMj3I-19" value="" style="shape=tableRow;horizontal=0;startSize=0;swimlaneHead=0;swimlaneBody=0;fillColor=none;collapsible=0;dropTarget=0;points=[[0,0.5],[1,0.5]];portConstraint=eastwest;top=0;left=0;right=0;bottom=1;" parent="2ckKhrjhJKjkPzwcMj3I-18" vertex="1">
          <mxGeometry y="30" width="170" height="30" as="geometry" />
        </mxCell>
        <mxCell id="2ckKhrjhJKjkPzwcMj3I-20" value="Cl_numero" style="shape=partialRectangle;connectable=0;fillColor=none;top=0;left=0;bottom=0;right=0;align=left;spacingLeft=6;fontStyle=5;overflow=hidden;" parent="2ckKhrjhJKjkPzwcMj3I-19" vertex="1">
          <mxGeometry width="80" height="30" as="geometry">
            <mxRectangle width="80" height="30" as="alternateBounds" />
          </mxGeometry>
        </mxCell>
        <mxCell id="2ckKhrjhJKjkPzwcMj3I-21" value="Cl_endereco" style="shape=partialRectangle;connectable=0;fillColor=none;top=0;left=0;bottom=0;right=0;align=left;spacingLeft=6;fontStyle=0;overflow=hidden;" parent="2ckKhrjhJKjkPzwcMj3I-19" vertex="1">
          <mxGeometry x="80" width="90" height="30" as="geometry">
            <mxRectangle width="90" height="30" as="alternateBounds" />
          </mxGeometry>
        </mxCell>
        <mxCell id="2ckKhrjhJKjkPzwcMj3I-25" value="" style="shape=tableRow;horizontal=0;startSize=0;swimlaneHead=0;swimlaneBody=0;fillColor=none;collapsible=0;dropTarget=0;points=[[0,0.5],[1,0.5]];portConstraint=eastwest;top=0;left=0;right=0;bottom=0;" parent="2ckKhrjhJKjkPzwcMj3I-18" vertex="1">
          <mxGeometry y="60" width="170" height="30" as="geometry" />
        </mxCell>
        <mxCell id="2ckKhrjhJKjkPzwcMj3I-26" value="0001" style="shape=partialRectangle;connectable=0;fillColor=none;top=0;left=0;bottom=0;right=0;align=left;spacingLeft=6;overflow=hidden;" parent="2ckKhrjhJKjkPzwcMj3I-25" vertex="1">
          <mxGeometry width="80" height="30" as="geometry">
            <mxRectangle width="80" height="30" as="alternateBounds" />
          </mxGeometry>
        </mxCell>
        <mxCell id="2ckKhrjhJKjkPzwcMj3I-27" value="Av. ABC, 864" style="shape=partialRectangle;connectable=0;fillColor=none;top=0;left=0;bottom=0;right=0;align=left;spacingLeft=6;overflow=hidden;" parent="2ckKhrjhJKjkPzwcMj3I-25" vertex="1">
          <mxGeometry x="80" width="90" height="30" as="geometry">
            <mxRectangle width="90" height="30" as="alternateBounds" />
          </mxGeometry>
        </mxCell>
        <mxCell id="2ckKhrjhJKjkPzwcMj3I-28" value="" style="shape=tableRow;horizontal=0;startSize=0;swimlaneHead=0;swimlaneBody=0;fillColor=none;collapsible=0;dropTarget=0;points=[[0,0.5],[1,0.5]];portConstraint=eastwest;top=0;left=0;right=0;bottom=0;" parent="2ckKhrjhJKjkPzwcMj3I-18" vertex="1">
          <mxGeometry y="90" width="170" height="30" as="geometry" />
        </mxCell>
        <mxCell id="2ckKhrjhJKjkPzwcMj3I-29" value="0002" style="shape=partialRectangle;connectable=0;fillColor=none;top=0;left=0;bottom=0;right=0;align=left;spacingLeft=6;overflow=hidden;" parent="2ckKhrjhJKjkPzwcMj3I-28" vertex="1">
          <mxGeometry width="80" height="30" as="geometry">
            <mxRectangle width="80" height="30" as="alternateBounds" />
          </mxGeometry>
        </mxCell>
        <mxCell id="2ckKhrjhJKjkPzwcMj3I-30" value="Rua DEF, 749" style="shape=partialRectangle;connectable=0;fillColor=none;top=0;left=0;bottom=0;right=0;align=left;spacingLeft=6;overflow=hidden;" parent="2ckKhrjhJKjkPzwcMj3I-28" vertex="1">
          <mxGeometry x="80" width="90" height="30" as="geometry">
            <mxRectangle width="90" height="30" as="alternateBounds" />
          </mxGeometry>
        </mxCell>
        <mxCell id="2ckKhrjhJKjkPzwcMj3I-34" style="shape=tableRow;horizontal=0;startSize=0;swimlaneHead=0;swimlaneBody=0;fillColor=none;collapsible=0;dropTarget=0;points=[[0,0.5],[1,0.5]];portConstraint=eastwest;top=0;left=0;right=0;bottom=0;" parent="2ckKhrjhJKjkPzwcMj3I-18" vertex="1">
          <mxGeometry y="120" width="170" height="30" as="geometry" />
        </mxCell>
        <mxCell id="2ckKhrjhJKjkPzwcMj3I-35" value="0002" style="shape=partialRectangle;connectable=0;fillColor=none;top=0;left=0;bottom=0;right=0;align=left;spacingLeft=6;overflow=hidden;" parent="2ckKhrjhJKjkPzwcMj3I-34" vertex="1">
          <mxGeometry width="80" height="30" as="geometry">
            <mxRectangle width="80" height="30" as="alternateBounds" />
          </mxGeometry>
        </mxCell>
        <mxCell id="2ckKhrjhJKjkPzwcMj3I-36" value="Av. GHI, 416" style="shape=partialRectangle;connectable=0;fillColor=none;top=0;left=0;bottom=0;right=0;align=left;spacingLeft=6;overflow=hidden;" parent="2ckKhrjhJKjkPzwcMj3I-34" vertex="1">
          <mxGeometry x="80" width="90" height="30" as="geometry">
            <mxRectangle width="90" height="30" as="alternateBounds" />
          </mxGeometry>
        </mxCell>
        <mxCell id="2ckKhrjhJKjkPzwcMj3I-37" value="ApÃ³lice" style="shape=table;startSize=30;container=1;collapsible=1;childLayout=tableLayout;fixedRows=1;rowLines=1;fontStyle=1;align=center;resizeLast=1;swimlaneLine=1;shadow=0;sketch=0;swimlaneFillColor=default;gradientColor=none;columnLines=1;" parent="1" vertex="1">
          <mxGeometry x="499" y="415" width="310" height="150" as="geometry" />
        </mxCell>
        <mxCell id="2ckKhrjhJKjkPzwcMj3I-38" value="" style="shape=tableRow;horizontal=0;startSize=0;swimlaneHead=0;swimlaneBody=0;fillColor=none;collapsible=0;dropTarget=0;points=[[0,0.5],[1,0.5]];portConstraint=eastwest;top=0;left=0;right=0;bottom=1;" parent="2ckKhrjhJKjkPzwcMj3I-37" vertex="1">
          <mxGeometry y="30" width="310" height="30" as="geometry" />
        </mxCell>
        <mxCell id="2ckKhrjhJKjkPzwcMj3I-39" value="Ap_numero" style="shape=partialRectangle;connectable=0;fillColor=none;top=0;left=0;bottom=0;right=0;align=left;spacingLeft=6;fontStyle=5;overflow=hidden;" parent="2ckKhrjhJKjkPzwcMj3I-38" vertex="1">
          <mxGeometry width="80" height="30" as="geometry">
            <mxRectangle width="80" height="30" as="alternateBounds" />
          </mxGeometry>
        </mxCell>
        <mxCell id="2ckKhrjhJKjkPzwcMj3I-40" value="Ap_Valor" style="shape=partialRectangle;connectable=0;fillColor=none;top=0;left=0;bottom=0;right=0;align=left;spacingLeft=6;fontStyle=0;overflow=hidden;" parent="2ckKhrjhJKjkPzwcMj3I-38" vertex="1">
          <mxGeometry x="80" width="70" height="30" as="geometry">
            <mxRectangle width="70" height="30" as="alternateBounds" />
          </mxGeometry>
        </mxCell>
        <mxCell id="J4MwFz6yTnkE-bTDTtD3-1" value="Cl_numero" style="shape=partialRectangle;connectable=0;fillColor=none;top=0;left=0;bottom=0;right=0;align=left;spacingLeft=6;fontStyle=0;overflow=hidden;" parent="2ckKhrjhJKjkPzwcMj3I-38" vertex="1">
          <mxGeometry x="150" width="80" height="30" as="geometry">
            <mxRectangle width="80" height="30" as="alternateBounds" />
          </mxGeometry>
        </mxCell>
        <mxCell id="w-L3kpts7CV-MhKVm01Z-4" value="Ca_registro" style="shape=partialRectangle;connectable=0;fillColor=none;top=0;left=0;bottom=0;right=0;align=left;spacingLeft=6;fontStyle=0;overflow=hidden;" parent="2ckKhrjhJKjkPzwcMj3I-38" vertex="1">
          <mxGeometry x="230" width="80" height="30" as="geometry">
            <mxRectangle width="80" height="30" as="alternateBounds" />
          </mxGeometry>
        </mxCell>
        <mxCell id="2ckKhrjhJKjkPzwcMj3I-41" value="" style="shape=tableRow;horizontal=0;startSize=0;swimlaneHead=0;swimlaneBody=0;fillColor=none;collapsible=0;dropTarget=0;points=[[0,0.5],[1,0.5]];portConstraint=eastwest;top=0;left=0;right=0;bottom=0;" parent="2ckKhrjhJKjkPzwcMj3I-37" vertex="1">
          <mxGeometry y="60" width="310" height="30" as="geometry" />
        </mxCell>
        <mxCell id="2ckKhrjhJKjkPzwcMj3I-42" value="00001" style="shape=partialRectangle;connectable=0;fillColor=none;top=0;left=0;bottom=0;right=0;align=left;spacingLeft=6;overflow=hidden;" parent="2ckKhrjhJKjkPzwcMj3I-41" vertex="1">
          <mxGeometry width="80" height="30" as="geometry">
            <mxRectangle width="80" height="30" as="alternateBounds" />
          </mxGeometry>
        </mxCell>
        <mxCell id="2ckKhrjhJKjkPzwcMj3I-43" value="3000" style="shape=partialRectangle;connectable=0;fillColor=none;top=0;left=0;bottom=0;right=0;align=left;spacingLeft=6;overflow=hidden;" parent="2ckKhrjhJKjkPzwcMj3I-41" vertex="1">
          <mxGeometry x="80" width="70" height="30" as="geometry">
            <mxRectangle width="70" height="30" as="alternateBounds" />
          </mxGeometry>
        </mxCell>
        <mxCell id="J4MwFz6yTnkE-bTDTtD3-2" value="0001" style="shape=partialRectangle;connectable=0;fillColor=none;top=0;left=0;bottom=0;right=0;align=left;spacingLeft=6;overflow=hidden;" parent="2ckKhrjhJKjkPzwcMj3I-41" vertex="1">
          <mxGeometry x="150" width="80" height="30" as="geometry">
            <mxRectangle width="80" height="30" as="alternateBounds" />
          </mxGeometry>
        </mxCell>
        <mxCell id="w-L3kpts7CV-MhKVm01Z-5" value="0002" style="shape=partialRectangle;connectable=0;fillColor=none;top=0;left=0;bottom=0;right=0;align=left;spacingLeft=6;overflow=hidden;" parent="2ckKhrjhJKjkPzwcMj3I-41" vertex="1">
          <mxGeometry x="230" width="80" height="30" as="geometry">
            <mxRectangle width="80" height="30" as="alternateBounds" />
          </mxGeometry>
        </mxCell>
        <mxCell id="2ckKhrjhJKjkPzwcMj3I-44" value="" style="shape=tableRow;horizontal=0;startSize=0;swimlaneHead=0;swimlaneBody=0;fillColor=none;collapsible=0;dropTarget=0;points=[[0,0.5],[1,0.5]];portConstraint=eastwest;top=0;left=0;right=0;bottom=0;" parent="2ckKhrjhJKjkPzwcMj3I-37" vertex="1">
          <mxGeometry y="90" width="310" height="30" as="geometry" />
        </mxCell>
        <mxCell id="2ckKhrjhJKjkPzwcMj3I-45" value="00002" style="shape=partialRectangle;connectable=0;fillColor=none;top=0;left=0;bottom=0;right=0;align=left;spacingLeft=6;overflow=hidden;" parent="2ckKhrjhJKjkPzwcMj3I-44" vertex="1">
          <mxGeometry width="80" height="30" as="geometry">
            <mxRectangle width="80" height="30" as="alternateBounds" />
          </mxGeometry>
        </mxCell>
        <mxCell id="2ckKhrjhJKjkPzwcMj3I-46" value="6000" style="shape=partialRectangle;connectable=0;fillColor=none;top=0;left=0;bottom=0;right=0;align=left;spacingLeft=6;overflow=hidden;" parent="2ckKhrjhJKjkPzwcMj3I-44" vertex="1">
          <mxGeometry x="80" width="70" height="30" as="geometry">
            <mxRectangle width="70" height="30" as="alternateBounds" />
          </mxGeometry>
        </mxCell>
        <mxCell id="J4MwFz6yTnkE-bTDTtD3-3" value="0002" style="shape=partialRectangle;connectable=0;fillColor=none;top=0;left=0;bottom=0;right=0;align=left;spacingLeft=6;overflow=hidden;" parent="2ckKhrjhJKjkPzwcMj3I-44" vertex="1">
          <mxGeometry x="150" width="80" height="30" as="geometry">
            <mxRectangle width="80" height="30" as="alternateBounds" />
          </mxGeometry>
        </mxCell>
        <mxCell id="w-L3kpts7CV-MhKVm01Z-6" value="0003" style="shape=partialRectangle;connectable=0;fillColor=none;top=0;left=0;bottom=0;right=0;align=left;spacingLeft=6;overflow=hidden;" parent="2ckKhrjhJKjkPzwcMj3I-44" vertex="1">
          <mxGeometry x="230" width="80" height="30" as="geometry">
            <mxRectangle width="80" height="30" as="alternateBounds" />
          </mxGeometry>
        </mxCell>
        <mxCell id="2ckKhrjhJKjkPzwcMj3I-47" value="" style="shape=tableRow;horizontal=0;startSize=0;swimlaneHead=0;swimlaneBody=0;fillColor=none;collapsible=0;dropTarget=0;points=[[0,0.5],[1,0.5]];portConstraint=eastwest;top=0;left=0;right=0;bottom=0;" parent="2ckKhrjhJKjkPzwcMj3I-37" vertex="1">
          <mxGeometry y="120" width="310" height="30" as="geometry" />
        </mxCell>
        <mxCell id="2ckKhrjhJKjkPzwcMj3I-48" value="00003" style="shape=partialRectangle;connectable=0;fillColor=none;top=0;left=0;bottom=0;right=0;align=left;spacingLeft=6;overflow=hidden;" parent="2ckKhrjhJKjkPzwcMj3I-47" vertex="1">
          <mxGeometry width="80" height="30" as="geometry">
            <mxRectangle width="80" height="30" as="alternateBounds" />
          </mxGeometry>
        </mxCell>
        <mxCell id="2ckKhrjhJKjkPzwcMj3I-49" value="4000" style="shape=partialRectangle;connectable=0;fillColor=none;top=0;left=0;bottom=0;right=0;align=left;spacingLeft=6;overflow=hidden;" parent="2ckKhrjhJKjkPzwcMj3I-47" vertex="1">
          <mxGeometry x="80" width="70" height="30" as="geometry">
            <mxRectangle width="70" height="30" as="alternateBounds" />
          </mxGeometry>
        </mxCell>
        <mxCell id="J4MwFz6yTnkE-bTDTtD3-4" value="0002" style="shape=partialRectangle;connectable=0;fillColor=none;top=0;left=0;bottom=0;right=0;align=left;spacingLeft=6;overflow=hidden;" parent="2ckKhrjhJKjkPzwcMj3I-47" vertex="1">
          <mxGeometry x="150" width="80" height="30" as="geometry">
            <mxRectangle width="80" height="30" as="alternateBounds" />
          </mxGeometry>
        </mxCell>
        <mxCell id="w-L3kpts7CV-MhKVm01Z-7" value="0001" style="shape=partialRectangle;connectable=0;fillColor=none;top=0;left=0;bottom=0;right=0;align=left;spacingLeft=6;overflow=hidden;" parent="2ckKhrjhJKjkPzwcMj3I-47" vertex="1">
          <mxGeometry x="230" width="80" height="30" as="geometry">
            <mxRectangle width="80" height="30" as="alternateBounds" />
          </mxGeometry>
        </mxCell>
        <mxCell id="Ckk5yGtQMoTr2uSfDVpV-5" value="Carro" style="shape=table;startSize=30;container=1;collapsible=1;childLayout=tableLayout;fixedRows=1;rowLines=1;fontStyle=1;align=center;resizeLast=1;swimlaneLine=1;shadow=0;sketch=0;swimlaneFillColor=default;gradientColor=none;columnLines=1;" parent="1" vertex="1">
          <mxGeometry x="499" y="575" width="160" height="150" as="geometry" />
        </mxCell>
        <mxCell id="Ckk5yGtQMoTr2uSfDVpV-6" value="" style="shape=tableRow;horizontal=0;startSize=0;swimlaneHead=0;swimlaneBody=0;fillColor=none;collapsible=0;dropTarget=0;points=[[0,0.5],[1,0.5]];portConstraint=eastwest;top=0;left=0;right=0;bottom=1;" parent="Ckk5yGtQMoTr2uSfDVpV-5" vertex="1">
          <mxGeometry y="30" width="160" height="30" as="geometry" />
        </mxCell>
        <mxCell id="Ckk5yGtQMoTr2uSfDVpV-7" value="Ca_registro" style="shape=partialRectangle;connectable=0;fillColor=none;top=0;left=0;bottom=0;right=0;align=left;spacingLeft=6;fontStyle=5;overflow=hidden;" parent="Ckk5yGtQMoTr2uSfDVpV-6" vertex="1">
          <mxGeometry width="80" height="30" as="geometry">
            <mxRectangle width="80" height="30" as="alternateBounds" />
          </mxGeometry>
        </mxCell>
        <mxCell id="Ckk5yGtQMoTr2uSfDVpV-8" value="Ca_marca" style="shape=partialRectangle;connectable=0;fillColor=none;top=0;left=0;bottom=0;right=0;align=left;spacingLeft=6;fontStyle=0;overflow=hidden;" parent="Ckk5yGtQMoTr2uSfDVpV-6" vertex="1">
          <mxGeometry x="80" width="80" height="30" as="geometry">
            <mxRectangle width="80" height="30" as="alternateBounds" />
          </mxGeometry>
        </mxCell>
        <mxCell id="Ckk5yGtQMoTr2uSfDVpV-9" value="" style="shape=tableRow;horizontal=0;startSize=0;swimlaneHead=0;swimlaneBody=0;fillColor=none;collapsible=0;dropTarget=0;points=[[0,0.5],[1,0.5]];portConstraint=eastwest;top=0;left=0;right=0;bottom=0;" parent="Ckk5yGtQMoTr2uSfDVpV-5" vertex="1">
          <mxGeometry y="60" width="160" height="30" as="geometry" />
        </mxCell>
        <mxCell id="Ckk5yGtQMoTr2uSfDVpV-10" value="0001" style="shape=partialRectangle;connectable=0;fillColor=none;top=0;left=0;bottom=0;right=0;align=left;spacingLeft=6;overflow=hidden;" parent="Ckk5yGtQMoTr2uSfDVpV-9" vertex="1">
          <mxGeometry width="80" height="30" as="geometry">
            <mxRectangle width="80" height="30" as="alternateBounds" />
          </mxGeometry>
        </mxCell>
        <mxCell id="Ckk5yGtQMoTr2uSfDVpV-11" value="Ford" style="shape=partialRectangle;connectable=0;fillColor=none;top=0;left=0;bottom=0;right=0;align=left;spacingLeft=6;overflow=hidden;" parent="Ckk5yGtQMoTr2uSfDVpV-9" vertex="1">
          <mxGeometry x="80" width="80" height="30" as="geometry">
            <mxRectangle width="80" height="30" as="alternateBounds" />
          </mxGeometry>
        </mxCell>
        <mxCell id="Ckk5yGtQMoTr2uSfDVpV-12" value="" style="shape=tableRow;horizontal=0;startSize=0;swimlaneHead=0;swimlaneBody=0;fillColor=none;collapsible=0;dropTarget=0;points=[[0,0.5],[1,0.5]];portConstraint=eastwest;top=0;left=0;right=0;bottom=0;" parent="Ckk5yGtQMoTr2uSfDVpV-5" vertex="1">
          <mxGeometry y="90" width="160" height="30" as="geometry" />
        </mxCell>
        <mxCell id="Ckk5yGtQMoTr2uSfDVpV-13" value="0002" style="shape=partialRectangle;connectable=0;fillColor=none;top=0;left=0;bottom=0;right=0;align=left;spacingLeft=6;overflow=hidden;" parent="Ckk5yGtQMoTr2uSfDVpV-12" vertex="1">
          <mxGeometry width="80" height="30" as="geometry">
            <mxRectangle width="80" height="30" as="alternateBounds" />
          </mxGeometry>
        </mxCell>
        <mxCell id="Ckk5yGtQMoTr2uSfDVpV-14" value="Chevrolet" style="shape=partialRectangle;connectable=0;fillColor=none;top=0;left=0;bottom=0;right=0;align=left;spacingLeft=6;overflow=hidden;" parent="Ckk5yGtQMoTr2uSfDVpV-12" vertex="1">
          <mxGeometry x="80" width="80" height="30" as="geometry">
            <mxRectangle width="80" height="30" as="alternateBounds" />
          </mxGeometry>
        </mxCell>
        <mxCell id="Ckk5yGtQMoTr2uSfDVpV-15" value="" style="shape=tableRow;horizontal=0;startSize=0;swimlaneHead=0;swimlaneBody=0;fillColor=none;collapsible=0;dropTarget=0;points=[[0,0.5],[1,0.5]];portConstraint=eastwest;top=0;left=0;right=0;bottom=0;" parent="Ckk5yGtQMoTr2uSfDVpV-5" vertex="1">
          <mxGeometry y="120" width="160" height="30" as="geometry" />
        </mxCell>
        <mxCell id="Ckk5yGtQMoTr2uSfDVpV-16" value="0003" style="shape=partialRectangle;connectable=0;fillColor=none;top=0;left=0;bottom=0;right=0;align=left;spacingLeft=6;overflow=hidden;" parent="Ckk5yGtQMoTr2uSfDVpV-15" vertex="1">
          <mxGeometry width="80" height="30" as="geometry">
            <mxRectangle width="80" height="30" as="alternateBounds" />
          </mxGeometry>
        </mxCell>
        <mxCell id="Ckk5yGtQMoTr2uSfDVpV-17" value="Volkswagen" style="shape=partialRectangle;connectable=0;fillColor=none;top=0;left=0;bottom=0;right=0;align=left;spacingLeft=6;overflow=hidden;" parent="Ckk5yGtQMoTr2uSfDVpV-15" vertex="1">
          <mxGeometry x="80" width="80" height="30" as="geometry">
            <mxRectangle width="80" height="30" as="alternateBounds" />
          </mxGeometry>
        </mxCell>
        <mxCell id="w-L3kpts7CV-MhKVm01Z-9" value="Acidente" style="shape=table;startSize=30;container=1;collapsible=1;childLayout=tableLayout;fixedRows=1;rowLines=1;fontStyle=1;align=center;resizeLast=1;swimlaneLine=1;shadow=0;sketch=0;swimlaneFillColor=default;gradientColor=none;columnLines=1;" parent="1" vertex="1">
          <mxGeometry x="19" y="665" width="280" height="90" as="geometry" />
        </mxCell>
        <mxCell id="w-L3kpts7CV-MhKVm01Z-10" value="" style="shape=tableRow;horizontal=0;startSize=0;swimlaneHead=0;swimlaneBody=0;fillColor=none;collapsible=0;dropTarget=0;points=[[0,0.5],[1,0.5]];portConstraint=eastwest;top=0;left=0;right=0;bottom=1;" parent="w-L3kpts7CV-MhKVm01Z-9" vertex="1">
          <mxGeometry y="30" width="280" height="30" as="geometry" />
        </mxCell>
        <mxCell id="w-L3kpts7CV-MhKVm01Z-11" value="Ac_data" style="shape=partialRectangle;connectable=0;fillColor=none;top=0;left=0;bottom=0;right=0;align=left;spacingLeft=6;fontStyle=5;overflow=hidden;" parent="w-L3kpts7CV-MhKVm01Z-10" vertex="1">
          <mxGeometry width="60" height="30" as="geometry">
            <mxRectangle width="60" height="30" as="alternateBounds" />
          </mxGeometry>
        </mxCell>
        <mxCell id="w-L3kpts7CV-MhKVm01Z-12" value="Ac_hora" style="shape=partialRectangle;connectable=0;fillColor=none;top=0;left=0;bottom=0;right=0;align=left;spacingLeft=6;fontStyle=0;overflow=hidden;" parent="w-L3kpts7CV-MhKVm01Z-10" vertex="1">
          <mxGeometry x="60" width="60" height="30" as="geometry">
            <mxRectangle width="60" height="30" as="alternateBounds" />
          </mxGeometry>
        </mxCell>
        <mxCell id="w-L3kpts7CV-MhKVm01Z-22" value="Ac_local" style="shape=partialRectangle;connectable=0;fillColor=none;top=0;left=0;bottom=0;right=0;align=left;spacingLeft=6;fontStyle=0;overflow=hidden;" parent="w-L3kpts7CV-MhKVm01Z-10" vertex="1">
          <mxGeometry x="120" width="80" height="30" as="geometry">
            <mxRectangle width="80" height="30" as="alternateBounds" />
          </mxGeometry>
        </mxCell>
        <mxCell id="w-L3kpts7CV-MhKVm01Z-24" value="Ca_registro" style="shape=partialRectangle;connectable=0;fillColor=none;top=0;left=0;bottom=0;right=0;align=left;spacingLeft=6;fontStyle=0;overflow=hidden;" parent="w-L3kpts7CV-MhKVm01Z-10" vertex="1">
          <mxGeometry x="200" width="80" height="30" as="geometry">
            <mxRectangle width="80" height="30" as="alternateBounds" />
          </mxGeometry>
        </mxCell>
        <mxCell id="w-L3kpts7CV-MhKVm01Z-13" value="" style="shape=tableRow;horizontal=0;startSize=0;swimlaneHead=0;swimlaneBody=0;fillColor=none;collapsible=0;dropTarget=0;points=[[0,0.5],[1,0.5]];portConstraint=eastwest;top=0;left=0;right=0;bottom=0;" parent="w-L3kpts7CV-MhKVm01Z-9" vertex="1">
          <mxGeometry y="60" width="280" height="30" as="geometry" />
        </mxCell>
        <mxCell id="w-L3kpts7CV-MhKVm01Z-14" value="22/04" style="shape=partialRectangle;connectable=0;fillColor=none;top=0;left=0;bottom=0;right=0;align=left;spacingLeft=6;overflow=hidden;" parent="w-L3kpts7CV-MhKVm01Z-13" vertex="1">
          <mxGeometry width="60" height="30" as="geometry">
            <mxRectangle width="60" height="30" as="alternateBounds" />
          </mxGeometry>
        </mxCell>
        <mxCell id="w-L3kpts7CV-MhKVm01Z-15" value="15h22m" style="shape=partialRectangle;connectable=0;fillColor=none;top=0;left=0;bottom=0;right=0;align=left;spacingLeft=6;overflow=hidden;" parent="w-L3kpts7CV-MhKVm01Z-13" vertex="1">
          <mxGeometry x="60" width="60" height="30" as="geometry">
            <mxRectangle width="60" height="30" as="alternateBounds" />
          </mxGeometry>
        </mxCell>
        <mxCell id="w-L3kpts7CV-MhKVm01Z-23" value="Rua SÃ©samo" style="shape=partialRectangle;connectable=0;fillColor=none;top=0;left=0;bottom=0;right=0;align=left;spacingLeft=6;overflow=hidden;" parent="w-L3kpts7CV-MhKVm01Z-13" vertex="1">
          <mxGeometry x="120" width="80" height="30" as="geometry">
            <mxRectangle width="80" height="30" as="alternateBounds" />
          </mxGeometry>
        </mxCell>
        <mxCell id="w-L3kpts7CV-MhKVm01Z-25" value="0003" style="shape=partialRectangle;connectable=0;fillColor=none;top=0;left=0;bottom=0;right=0;align=left;spacingLeft=6;overflow=hidden;" parent="w-L3kpts7CV-MhKVm01Z-13" vertex="1">
          <mxGeometry x="200" width="80" height="30" as="geometry">
            <mxRectangle width="80" height="30" as="alternateBounds" />
          </mxGeometry>
        </mxCell>
      </root>
    </mxGraphModel>
  </diagram>
  <diagram id="HNAWpTOWhekSPjoTUBXn" name="Ex-2-ER">
    <mxGraphModel dx="402" dy="230" grid="1" gridSize="10" guides="1" tooltips="1" connect="1" arrows="1" fold="1" page="1" pageScale="1" pageWidth="827" pageHeight="1169" math="0" shadow="0">
      <root>
        <mxCell id="0" />
        <mxCell id="1" parent="0" />
        <mxCell id="zUjXxNuxVoxWwNqtg4Zf-9" value="" style="edgeStyle=orthogonalEdgeStyle;rounded=0;orthogonalLoop=1;jettySize=auto;html=1;endArrow=none;endFill=0;" edge="1" parent="1" source="zUjXxNuxVoxWwNqtg4Zf-1" target="zUjXxNuxVoxWwNqtg4Zf-2">
          <mxGeometry relative="1" as="geometry" />
        </mxCell>
        <mxCell id="zUjXxNuxVoxWwNqtg4Zf-1" value="FuncionÃ¡rio" style="rounded=0;whiteSpace=wrap;html=1;" vertex="1" parent="1">
          <mxGeometry x="120" y="390" width="120" height="60" as="geometry" />
        </mxCell>
        <mxCell id="zUjXxNuxVoxWwNqtg4Zf-10" value="" style="edgeStyle=orthogonalEdgeStyle;rounded=0;orthogonalLoop=1;jettySize=auto;html=1;endArrow=none;endFill=0;" edge="1" parent="1" source="zUjXxNuxVoxWwNqtg4Zf-2" target="zUjXxNuxVoxWwNqtg4Zf-3">
          <mxGeometry relative="1" as="geometry" />
        </mxCell>
        <mxCell id="zUjXxNuxVoxWwNqtg4Zf-2" value="Pertence" style="rhombus;whiteSpace=wrap;html=1;" vertex="1" parent="1">
          <mxGeometry x="280" y="380" width="80" height="80" as="geometry" />
        </mxCell>
        <mxCell id="zUjXxNuxVoxWwNqtg4Zf-11" value="" style="edgeStyle=orthogonalEdgeStyle;rounded=0;orthogonalLoop=1;jettySize=auto;html=1;endArrow=none;endFill=0;" edge="1" parent="1" source="zUjXxNuxVoxWwNqtg4Zf-3" target="zUjXxNuxVoxWwNqtg4Zf-4">
          <mxGeometry relative="1" as="geometry" />
        </mxCell>
        <mxCell id="zUjXxNuxVoxWwNqtg4Zf-3" value="Projeto" style="rounded=0;whiteSpace=wrap;html=1;" vertex="1" parent="1">
          <mxGeometry x="400" y="390" width="120" height="60" as="geometry" />
        </mxCell>
        <mxCell id="zUjXxNuxVoxWwNqtg4Zf-12" value="" style="edgeStyle=orthogonalEdgeStyle;rounded=0;orthogonalLoop=1;jettySize=auto;html=1;endArrow=none;endFill=0;" edge="1" parent="1" source="zUjXxNuxVoxWwNqtg4Zf-4" target="zUjXxNuxVoxWwNqtg4Zf-5">
          <mxGeometry relative="1" as="geometry" />
        </mxCell>
        <mxCell id="zUjXxNuxVoxWwNqtg4Zf-13" value="" style="edgeStyle=orthogonalEdgeStyle;rounded=0;orthogonalLoop=1;jettySize=auto;html=1;endArrow=none;endFill=0;" edge="1" parent="1" source="zUjXxNuxVoxWwNqtg4Zf-4" target="zUjXxNuxVoxWwNqtg4Zf-6">
          <mxGeometry relative="1" as="geometry" />
        </mxCell>
        <mxCell id="zUjXxNuxVoxWwNqtg4Zf-4" value="Utiliza" style="rhombus;whiteSpace=wrap;html=1;" vertex="1" parent="1">
          <mxGeometry x="560" y="380" width="80" height="80" as="geometry" />
        </mxCell>
        <mxCell id="zUjXxNuxVoxWwNqtg4Zf-5" value="Fornecedores" style="rounded=0;whiteSpace=wrap;html=1;" vertex="1" parent="1">
          <mxGeometry x="680" y="390" width="120" height="60" as="geometry" />
        </mxCell>
        <mxCell id="zUjXxNuxVoxWwNqtg4Zf-14" value="" style="edgeStyle=orthogonalEdgeStyle;rounded=0;orthogonalLoop=1;jettySize=auto;html=1;endArrow=none;endFill=0;" edge="1" parent="1" source="zUjXxNuxVoxWwNqtg4Zf-6" target="zUjXxNuxVoxWwNqtg4Zf-8">
          <mxGeometry relative="1" as="geometry" />
        </mxCell>
        <mxCell id="zUjXxNuxVoxWwNqtg4Zf-6" value="PeÃ§a" style="rounded=0;whiteSpace=wrap;html=1;" vertex="1" parent="1">
          <mxGeometry x="540" y="290" width="120" height="60" as="geometry" />
        </mxCell>
        <mxCell id="zUjXxNuxVoxWwNqtg4Zf-7" value="DepÃ³sito" style="rounded=0;whiteSpace=wrap;html=1;" vertex="1" parent="1">
          <mxGeometry x="400" y="190" width="120" height="60" as="geometry" />
        </mxCell>
        <mxCell id="zUjXxNuxVoxWwNqtg4Zf-15" value="" style="edgeStyle=orthogonalEdgeStyle;rounded=0;orthogonalLoop=1;jettySize=auto;html=1;endArrow=none;endFill=0;" edge="1" parent="1" source="zUjXxNuxVoxWwNqtg4Zf-8" target="zUjXxNuxVoxWwNqtg4Zf-7">
          <mxGeometry relative="1" as="geometry" />
        </mxCell>
        <mxCell id="zUjXxNuxVoxWwNqtg4Zf-8" value="ContÃ©m" style="rhombus;whiteSpace=wrap;html=1;" vertex="1" parent="1">
          <mxGeometry x="420" y="280" width="80" height="80" as="geometry" />
        </mxCell>
        <mxCell id="zUjXxNuxVoxWwNqtg4Zf-20" value="" style="edgeStyle=orthogonalEdgeStyle;rounded=0;orthogonalLoop=1;jettySize=auto;html=1;endArrow=none;endFill=0;" edge="1" parent="1" source="zUjXxNuxVoxWwNqtg4Zf-17" target="zUjXxNuxVoxWwNqtg4Zf-1">
          <mxGeometry relative="1" as="geometry" />
        </mxCell>
        <mxCell id="zUjXxNuxVoxWwNqtg4Zf-17" value="Aloca" style="rhombus;whiteSpace=wrap;html=1;" vertex="1" parent="1">
          <mxGeometry x="140" y="280" width="80" height="80" as="geometry" />
        </mxCell>
        <mxCell id="zUjXxNuxVoxWwNqtg4Zf-19" value="" style="edgeStyle=orthogonalEdgeStyle;rounded=0;orthogonalLoop=1;jettySize=auto;html=1;endArrow=none;endFill=0;" edge="1" parent="1" source="zUjXxNuxVoxWwNqtg4Zf-18" target="zUjXxNuxVoxWwNqtg4Zf-17">
          <mxGeometry relative="1" as="geometry" />
        </mxCell>
        <mxCell id="zUjXxNuxVoxWwNqtg4Zf-18" value="Departamento" style="rounded=0;whiteSpace=wrap;html=1;" vertex="1" parent="1">
          <mxGeometry x="120" y="190" width="120" height="60" as="geometry" />
        </mxCell>
        <mxCell id="zUjXxNuxVoxWwNqtg4Zf-21" value="1" style="text;html=1;strokeColor=none;fillColor=none;align=center;verticalAlign=middle;whiteSpace=wrap;rounded=0;" vertex="1" parent="1">
          <mxGeometry x="160" y="250" width="60" height="30" as="geometry" />
        </mxCell>
        <mxCell id="zUjXxNuxVoxWwNqtg4Zf-22" value="n" style="text;html=1;strokeColor=none;fillColor=none;align=center;verticalAlign=middle;whiteSpace=wrap;rounded=0;" vertex="1" parent="1">
          <mxGeometry x="160" y="360" width="60" height="30" as="geometry" />
        </mxCell>
        <mxCell id="zUjXxNuxVoxWwNqtg4Zf-23" value="n" style="text;html=1;strokeColor=none;fillColor=none;align=center;verticalAlign=middle;whiteSpace=wrap;rounded=0;" vertex="1" parent="1">
          <mxGeometry x="350" y="390" width="60" height="30" as="geometry" />
        </mxCell>
        <mxCell id="zUjXxNuxVoxWwNqtg4Zf-24" value="n" style="text;html=1;strokeColor=none;fillColor=none;align=center;verticalAlign=middle;whiteSpace=wrap;rounded=0;" vertex="1" parent="1">
          <mxGeometry x="230" y="390" width="60" height="30" as="geometry" />
        </mxCell>
        <mxCell id="zUjXxNuxVoxWwNqtg4Zf-27" value="n" style="text;html=1;strokeColor=none;fillColor=none;align=center;verticalAlign=middle;whiteSpace=wrap;rounded=0;" vertex="1" parent="1">
          <mxGeometry x="510" y="390" width="60" height="30" as="geometry" />
        </mxCell>
        <mxCell id="zUjXxNuxVoxWwNqtg4Zf-28" value="n" style="text;html=1;strokeColor=none;fillColor=none;align=center;verticalAlign=middle;whiteSpace=wrap;rounded=0;" vertex="1" parent="1">
          <mxGeometry x="630" y="390" width="60" height="30" as="geometry" />
        </mxCell>
        <mxCell id="zUjXxNuxVoxWwNqtg4Zf-31" value="n" style="text;html=1;strokeColor=none;fillColor=none;align=center;verticalAlign=middle;whiteSpace=wrap;rounded=0;" vertex="1" parent="1">
          <mxGeometry x="560" y="350" width="60" height="30" as="geometry" />
        </mxCell>
        <mxCell id="zUjXxNuxVoxWwNqtg4Zf-32" value="n" style="text;html=1;strokeColor=none;fillColor=none;align=center;verticalAlign=middle;whiteSpace=wrap;rounded=0;" vertex="1" parent="1">
          <mxGeometry x="490" y="320" width="60" height="30" as="geometry" />
        </mxCell>
        <mxCell id="zUjXxNuxVoxWwNqtg4Zf-33" value="1" style="text;html=1;strokeColor=none;fillColor=none;align=center;verticalAlign=middle;whiteSpace=wrap;rounded=0;" vertex="1" parent="1">
          <mxGeometry x="414" y="250" width="60" height="30" as="geometry" />
        </mxCell>
        <mxCell id="zUjXxNuxVoxWwNqtg4Zf-34" value="" style="ellipse;whiteSpace=wrap;html=1;aspect=fixed;" vertex="1" parent="1">
          <mxGeometry x="130" y="460" width="20" height="20" as="geometry" />
        </mxCell>
        <mxCell id="zUjXxNuxVoxWwNqtg4Zf-35" value="" style="ellipse;whiteSpace=wrap;html=1;aspect=fixed;" vertex="1" parent="1">
          <mxGeometry x="210" y="460" width="20" height="20" as="geometry" />
        </mxCell>
        <mxCell id="zUjXxNuxVoxWwNqtg4Zf-38" value="" style="endArrow=none;html=1;rounded=0;entryX=0.833;entryY=1;entryDx=0;entryDy=0;entryPerimeter=0;" edge="1" parent="1" source="zUjXxNuxVoxWwNqtg4Zf-35" target="zUjXxNuxVoxWwNqtg4Zf-1">
          <mxGeometry width="50" height="50" relative="1" as="geometry">
            <mxPoint x="250" y="560" as="sourcePoint" />
            <mxPoint x="210" y="490" as="targetPoint" />
          </mxGeometry>
        </mxCell>
        <mxCell id="zUjXxNuxVoxWwNqtg4Zf-39" value="" style="endArrow=none;html=1;rounded=0;exitX=0.167;exitY=1;exitDx=0;exitDy=0;exitPerimeter=0;" edge="1" parent="1" source="zUjXxNuxVoxWwNqtg4Zf-1" target="zUjXxNuxVoxWwNqtg4Zf-34">
          <mxGeometry width="50" height="50" relative="1" as="geometry">
            <mxPoint x="150" y="490" as="sourcePoint" />
            <mxPoint x="220" y="500" as="targetPoint" />
          </mxGeometry>
        </mxCell>
        <mxCell id="zUjXxNuxVoxWwNqtg4Zf-42" value="" style="ellipse;whiteSpace=wrap;html=1;aspect=fixed;" vertex="1" parent="1">
          <mxGeometry x="170" y="460" width="20" height="20" as="geometry" />
        </mxCell>
        <mxCell id="zUjXxNuxVoxWwNqtg4Zf-43" value="" style="endArrow=none;html=1;rounded=0;" edge="1" parent="1" source="zUjXxNuxVoxWwNqtg4Zf-42" target="zUjXxNuxVoxWwNqtg4Zf-1">
          <mxGeometry width="50" height="50" relative="1" as="geometry">
            <mxPoint x="220" y="470" as="sourcePoint" />
            <mxPoint x="220" y="460" as="targetPoint" />
          </mxGeometry>
        </mxCell>
        <mxCell id="zUjXxNuxVoxWwNqtg4Zf-45" value="" style="ellipse;whiteSpace=wrap;html=1;aspect=fixed;" vertex="1" parent="1">
          <mxGeometry x="200" y="160" width="20" height="20" as="geometry" />
        </mxCell>
        <mxCell id="zUjXxNuxVoxWwNqtg4Zf-46" value="" style="endArrow=none;html=1;rounded=0;entryX=0.75;entryY=0;entryDx=0;entryDy=0;" edge="1" parent="1" source="zUjXxNuxVoxWwNqtg4Zf-45" target="zUjXxNuxVoxWwNqtg4Zf-18">
          <mxGeometry width="50" height="50" relative="1" as="geometry">
            <mxPoint x="360" y="310" as="sourcePoint" />
            <mxPoint x="410" y="260" as="targetPoint" />
          </mxGeometry>
        </mxCell>
        <mxCell id="zUjXxNuxVoxWwNqtg4Zf-47" value="" style="ellipse;whiteSpace=wrap;html=1;aspect=fixed;" vertex="1" parent="1">
          <mxGeometry x="140" y="160" width="20" height="20" as="geometry" />
        </mxCell>
        <mxCell id="zUjXxNuxVoxWwNqtg4Zf-48" value="" style="endArrow=none;html=1;rounded=0;entryX=0.25;entryY=0;entryDx=0;entryDy=0;" edge="1" source="zUjXxNuxVoxWwNqtg4Zf-47" parent="1" target="zUjXxNuxVoxWwNqtg4Zf-18">
          <mxGeometry width="50" height="50" relative="1" as="geometry">
            <mxPoint x="300" y="310" as="sourcePoint" />
            <mxPoint x="150" y="190" as="targetPoint" />
          </mxGeometry>
        </mxCell>
        <mxCell id="zUjXxNuxVoxWwNqtg4Zf-49" value="" style="ellipse;whiteSpace=wrap;html=1;aspect=fixed;" vertex="1" parent="1">
          <mxGeometry x="560" y="260" width="20" height="20" as="geometry" />
        </mxCell>
        <mxCell id="zUjXxNuxVoxWwNqtg4Zf-50" value="" style="ellipse;whiteSpace=wrap;html=1;aspect=fixed;" vertex="1" parent="1">
          <mxGeometry x="620" y="260" width="20" height="20" as="geometry" />
        </mxCell>
        <mxCell id="zUjXxNuxVoxWwNqtg4Zf-51" value="" style="endArrow=none;html=1;rounded=0;entryX=0.75;entryY=0;entryDx=0;entryDy=0;" edge="1" source="zUjXxNuxVoxWwNqtg4Zf-50" parent="1" target="zUjXxNuxVoxWwNqtg4Zf-6">
          <mxGeometry width="50" height="50" relative="1" as="geometry">
            <mxPoint x="670" y="360" as="sourcePoint" />
            <mxPoint x="630" y="250" as="targetPoint" />
          </mxGeometry>
        </mxCell>
        <mxCell id="zUjXxNuxVoxWwNqtg4Zf-52" value="" style="endArrow=none;html=1;rounded=0;exitX=0.25;exitY=0;exitDx=0;exitDy=0;" edge="1" target="zUjXxNuxVoxWwNqtg4Zf-49" parent="1" source="zUjXxNuxVoxWwNqtg4Zf-6">
          <mxGeometry width="50" height="50" relative="1" as="geometry">
            <mxPoint x="570" y="250" as="sourcePoint" />
            <mxPoint x="640" y="300" as="targetPoint" />
          </mxGeometry>
        </mxCell>
        <mxCell id="zUjXxNuxVoxWwNqtg4Zf-53" value="" style="ellipse;whiteSpace=wrap;html=1;aspect=fixed;" vertex="1" parent="1">
          <mxGeometry x="590" y="260" width="20" height="20" as="geometry" />
        </mxCell>
        <mxCell id="zUjXxNuxVoxWwNqtg4Zf-54" value="" style="endArrow=none;html=1;rounded=0;" edge="1" source="zUjXxNuxVoxWwNqtg4Zf-53" parent="1" target="zUjXxNuxVoxWwNqtg4Zf-6">
          <mxGeometry width="50" height="50" relative="1" as="geometry">
            <mxPoint x="640" y="270" as="sourcePoint" />
            <mxPoint x="600" y="250" as="targetPoint" />
          </mxGeometry>
        </mxCell>
        <mxCell id="zUjXxNuxVoxWwNqtg4Zf-55" value="" style="ellipse;whiteSpace=wrap;html=1;aspect=fixed;" vertex="1" parent="1">
          <mxGeometry x="480" y="160" width="20" height="20" as="geometry" />
        </mxCell>
        <mxCell id="zUjXxNuxVoxWwNqtg4Zf-56" value="" style="endArrow=none;html=1;rounded=0;entryX=0.75;entryY=0;entryDx=0;entryDy=0;" edge="1" source="zUjXxNuxVoxWwNqtg4Zf-55" parent="1" target="zUjXxNuxVoxWwNqtg4Zf-7">
          <mxGeometry width="50" height="50" relative="1" as="geometry">
            <mxPoint x="640" y="310" as="sourcePoint" />
            <mxPoint x="490" y="190" as="targetPoint" />
          </mxGeometry>
        </mxCell>
        <mxCell id="zUjXxNuxVoxWwNqtg4Zf-57" value="" style="ellipse;whiteSpace=wrap;html=1;aspect=fixed;" vertex="1" parent="1">
          <mxGeometry x="420" y="160" width="20" height="20" as="geometry" />
        </mxCell>
        <mxCell id="zUjXxNuxVoxWwNqtg4Zf-58" value="" style="endArrow=none;html=1;rounded=0;entryX=0.25;entryY=0;entryDx=0;entryDy=0;" edge="1" source="zUjXxNuxVoxWwNqtg4Zf-57" parent="1" target="zUjXxNuxVoxWwNqtg4Zf-7">
          <mxGeometry width="50" height="50" relative="1" as="geometry">
            <mxPoint x="580" y="310" as="sourcePoint" />
            <mxPoint x="430" y="190" as="targetPoint" />
          </mxGeometry>
        </mxCell>
        <mxCell id="zUjXxNuxVoxWwNqtg4Zf-59" value="" style="ellipse;whiteSpace=wrap;html=1;aspect=fixed;" vertex="1" parent="1">
          <mxGeometry x="760" y="460" width="20" height="20" as="geometry" />
        </mxCell>
        <mxCell id="zUjXxNuxVoxWwNqtg4Zf-60" value="" style="endArrow=none;html=1;rounded=0;entryX=0.75;entryY=1;entryDx=0;entryDy=0;" edge="1" source="zUjXxNuxVoxWwNqtg4Zf-59" parent="1" target="zUjXxNuxVoxWwNqtg4Zf-5">
          <mxGeometry width="50" height="50" relative="1" as="geometry">
            <mxPoint x="920" y="605" as="sourcePoint" />
            <mxPoint x="769.9999999999998" y="485" as="targetPoint" />
          </mxGeometry>
        </mxCell>
        <mxCell id="zUjXxNuxVoxWwNqtg4Zf-61" value="" style="ellipse;whiteSpace=wrap;html=1;aspect=fixed;" vertex="1" parent="1">
          <mxGeometry x="700" y="460" width="20" height="20" as="geometry" />
        </mxCell>
        <mxCell id="zUjXxNuxVoxWwNqtg4Zf-62" value="" style="endArrow=none;html=1;rounded=0;entryX=0.25;entryY=1;entryDx=0;entryDy=0;" edge="1" source="zUjXxNuxVoxWwNqtg4Zf-61" parent="1" target="zUjXxNuxVoxWwNqtg4Zf-5">
          <mxGeometry width="50" height="50" relative="1" as="geometry">
            <mxPoint x="860" y="605" as="sourcePoint" />
            <mxPoint x="709.9999999999998" y="485" as="targetPoint" />
          </mxGeometry>
        </mxCell>
        <mxCell id="zUjXxNuxVoxWwNqtg4Zf-63" value="" style="ellipse;whiteSpace=wrap;html=1;aspect=fixed;" vertex="1" parent="1">
          <mxGeometry x="480" y="460" width="20" height="20" as="geometry" />
        </mxCell>
        <mxCell id="zUjXxNuxVoxWwNqtg4Zf-64" value="" style="endArrow=none;html=1;rounded=0;entryX=0.75;entryY=1;entryDx=0;entryDy=0;" edge="1" source="zUjXxNuxVoxWwNqtg4Zf-63" parent="1" target="zUjXxNuxVoxWwNqtg4Zf-3">
          <mxGeometry width="50" height="50" relative="1" as="geometry">
            <mxPoint x="640" y="610" as="sourcePoint" />
            <mxPoint x="489.9999999999998" y="490" as="targetPoint" />
          </mxGeometry>
        </mxCell>
        <mxCell id="zUjXxNuxVoxWwNqtg4Zf-65" value="" style="ellipse;whiteSpace=wrap;html=1;aspect=fixed;" vertex="1" parent="1">
          <mxGeometry x="420" y="460" width="20" height="20" as="geometry" />
        </mxCell>
        <mxCell id="zUjXxNuxVoxWwNqtg4Zf-66" value="" style="endArrow=none;html=1;rounded=0;entryX=0.25;entryY=1;entryDx=0;entryDy=0;" edge="1" source="zUjXxNuxVoxWwNqtg4Zf-65" parent="1" target="zUjXxNuxVoxWwNqtg4Zf-3">
          <mxGeometry width="50" height="50" relative="1" as="geometry">
            <mxPoint x="580" y="610" as="sourcePoint" />
            <mxPoint x="429.9999999999998" y="490" as="targetPoint" />
          </mxGeometry>
        </mxCell>
        <mxCell id="zUjXxNuxVoxWwNqtg4Zf-67" value="" style="ellipse;whiteSpace=wrap;html=1;aspect=fixed;" vertex="1" parent="1">
          <mxGeometry x="620" y="460" width="20" height="20" as="geometry" />
        </mxCell>
        <mxCell id="zUjXxNuxVoxWwNqtg4Zf-68" value="" style="endArrow=none;html=1;rounded=0;" edge="1" source="zUjXxNuxVoxWwNqtg4Zf-67" parent="1" target="zUjXxNuxVoxWwNqtg4Zf-4">
          <mxGeometry width="50" height="50" relative="1" as="geometry">
            <mxPoint x="780" y="605" as="sourcePoint" />
            <mxPoint x="619.9999999999999" y="450" as="targetPoint" />
          </mxGeometry>
        </mxCell>
        <mxCell id="zUjXxNuxVoxWwNqtg4Zf-69" value="" style="ellipse;whiteSpace=wrap;html=1;aspect=fixed;" vertex="1" parent="1">
          <mxGeometry x="560" y="460" width="20" height="20" as="geometry" />
        </mxCell>
        <mxCell id="zUjXxNuxVoxWwNqtg4Zf-70" value="" style="endArrow=none;html=1;rounded=0;" edge="1" source="zUjXxNuxVoxWwNqtg4Zf-69" parent="1" target="zUjXxNuxVoxWwNqtg4Zf-4">
          <mxGeometry width="50" height="50" relative="1" as="geometry">
            <mxPoint x="720" y="605" as="sourcePoint" />
            <mxPoint x="579.9999999999999" y="450" as="targetPoint" />
          </mxGeometry>
        </mxCell>
      </root>
    </mxGraphModel>
  </diagram>
</mxfile>
